<svg width="481" height="165" viewBox="0 0 481 165" fill="none" xmlns="http://www.w3.org/2000/svg">
<g clip-path="url(#clip0_4752_9206)">
<path fill-rule="evenodd" clip-rule="evenodd" d="M31.3398 65.1109C30.4398 62.3209 29.6198 59.4809 28.6598 56.7009C28.2698 55.5709 28.5198 54.8309 29.3498 53.9609C31.7098 51.5209 34.6598 50.5209 37.8698 50.0809C42.2898 49.4809 46.6598 49.8109 50.8798 51.4709C51.2398 51.5909 51.6198 51.7609 51.9598 51.9309C55.2998 53.6009 55.8198 54.7609 54.8198 58.3009C54.4698 59.5209 54.1098 60.7609 53.6398 61.9509C53.2098 63.1809 52.6598 64.3209 52.4298 65.6809C53.3798 64.3109 54.3798 62.9809 55.2298 61.5409C56.0898 60.0709 56.7898 58.4909 57.3398 57.3409C59.8398 58.2409 62.1998 59.1509 64.6098 59.9109C66.2198 60.4209 66.8598 61.2409 66.1098 62.7809C65.0898 64.8509 63.9198 66.9109 62.4898 68.6709C59.8398 71.9509 56.9098 75.0109 54.0598 78.1509C49.9198 75.7609 45.6698 74.6809 41.1198 74.7209C36.5598 74.7209 32.3298 75.8609 27.9698 78.2209C24.6098 73.9509 21.2198 69.6909 17.8598 65.4109C17.6198 65.0909 17.4498 64.7309 17.2698 64.3709C15.2698 60.3709 16.1798 60.2509 19.3098 59.5009C21.6798 58.9509 23.9498 57.8909 26.2698 57.0509C27.7398 59.6409 29.3398 62.4909 30.9698 65.3409C31.0798 65.2709 31.1998 65.2009 31.3198 65.1109" fill="white"/>
<path fill-rule="evenodd" clip-rule="evenodd" d="M55.9396 84.1802C55.9796 85.6802 54.7196 86.2502 53.1496 85.5102C50.8996 84.4702 48.7196 83.2502 46.3796 82.6102C40.8396 81.0702 35.5496 82.0802 30.6096 84.8502C30.1596 85.1002 29.7596 85.5102 29.3196 85.5402C28.6196 85.6102 27.6996 85.6802 27.3096 85.3302C26.9096 84.9402 26.7596 83.9402 26.9396 83.3402C27.1696 82.6302 27.7496 81.9902 28.3696 81.5002C35.5696 75.9302 45.8696 75.7002 53.4096 80.8502C54.9496 81.9002 55.9196 83.1902 55.9396 84.1802" fill="white"/>
<path fill-rule="evenodd" clip-rule="evenodd" d="M81.1196 125.811C78.1396 115.851 72.6596 107.261 65.8996 99.4806C61.6296 94.5106 56.9496 90.0106 51.1296 86.8506C47.5796 84.9106 43.8396 83.8406 39.7296 84.2206C35.0696 84.6906 31.0496 86.6806 27.4296 89.4206C18.5096 96.1606 11.6896 104.641 6.37963 114.391C2.95963 120.601 0.409626 127.101 0.0396258 134.311C-0.250374 140.381 1.20963 145.931 4.99963 150.751C9.59963 156.651 15.8896 159.971 22.9096 162.171C23.4596 162.351 24.0396 162.541 24.5896 162.691C25.1196 162.841 25.6296 162.931 26.1596 163.051C22.4296 161.031 18.9996 158.701 16.0796 155.641C12.8596 152.241 10.0396 147.261 10.1896 145.011C13.8196 151.341 19.0896 155.851 25.5296 158.961C31.5596 161.891 37.8296 164.181 44.6896 163.051C54.5496 161.391 63.0196 157.091 69.5496 149.341C70.6396 148.051 71.5596 146.651 72.5396 145.311C72.6696 145.361 72.7996 145.461 72.9496 145.521C71.9496 147.431 71.1596 149.441 70.0296 151.271C66.7796 156.591 61.9996 160.201 56.4296 162.891C56.4796 163.001 56.5596 163.111 56.5996 163.221C59.2796 162.271 62.0396 161.461 64.6596 160.351C71.0596 157.581 76.5096 153.651 79.8596 147.331C83.5396 140.371 83.2996 133.101 81.1096 125.801" fill="white"/>
<path d="M124.24 160.271C119.18 157.211 115.24 152.891 112.43 147.311C109.61 141.731 108.21 135.311 108.21 128.051C108.21 120.801 109.62 114.381 112.43 108.791C115.25 103.211 119.18 98.8909 124.24 95.8309C129.3 92.7709 135.07 91.2509 141.57 91.2509C146.06 91.2509 150.23 91.9909 154.1 93.4709C157.96 94.9509 161.24 97.0309 163.91 99.7009V68.2409L186.39 58.4609V163.421H166.2L165.91 153.971C163.24 157.411 159.8 160.081 155.6 161.991C151.4 163.901 146.72 164.861 141.57 164.861C135.08 164.861 129.3 163.331 124.24 160.281V160.271ZM135.2 140.941C138.3 144.281 142.33 145.951 147.3 145.951C152.26 145.951 156.32 144.301 159.47 141.011C162.62 137.721 164.19 133.401 164.19 128.051C164.19 122.711 162.62 118.381 159.47 115.091C156.32 111.801 152.26 110.151 147.3 110.151C142.33 110.151 138.3 111.821 135.2 115.161C132.1 118.501 130.54 122.801 130.54 128.041C130.54 133.291 132.09 137.591 135.2 140.931V140.941Z" fill="white"/>
<path d="M199.12 55.3001L221.6 45.8301V100.42C227.04 94.2101 234.25 91.1101 243.22 91.1101C251.9 91.1101 258.8 94.0201 263.91 99.8401C269.02 105.66 271.57 113.54 271.57 123.46V163.41H249.09V124.75C249.09 120.17 247.97 116.59 245.73 114.01C243.48 111.43 240.36 110.15 236.35 110.15C231.96 110.15 228.4 111.63 225.68 114.59C222.96 117.55 221.6 121.42 221.6 126.19V163.41H199.12V55.3001V55.3001Z" fill="white"/>
<path d="M295.7 160.19C290.59 157.09 286.61 152.74 283.74 147.16C280.88 141.58 279.45 135.2 279.45 128.04C279.45 120.88 280.88 114.51 283.74 108.93C286.61 103.35 290.59 98.9998 295.7 95.8998C300.81 92.7998 306.65 91.2498 313.24 91.2498C318.01 91.2498 322.4 92.0898 326.41 93.7598C330.42 95.4298 335.12 99.1098 337.98 102.25L338.15 92.6798L357.62 88.3398V163.41H338.15L338.32 154.96C332.31 161.55 322.88 164.84 313.24 164.84C306.65 164.84 300.8 163.29 295.7 160.18V160.19ZM306.44 140.93C309.54 144.27 313.57 145.94 318.54 145.94C323.5 145.94 327.56 144.29 330.71 141C333.86 137.71 335.43 133.39 335.43 128.04C335.43 122.7 333.86 118.37 330.71 115.08C327.56 111.79 323.5 110.14 318.54 110.14C313.57 110.14 309.54 111.81 306.44 115.15C303.34 118.49 301.79 122.79 301.79 128.03C301.79 133.28 303.34 137.58 306.44 140.92V140.93Z" fill="white"/>
<path d="M370.37 87.6193L391.15 83.2793L391.27 100.989C394.04 97.8393 397.36 95.4093 401.22 93.6893C405.08 91.9693 409.36 91.1093 414.03 91.1093C422.81 91.1093 429.8 93.9793 435.01 99.6993C440.21 105.429 442.81 113.349 442.81 123.469V163.419H420.33V124.759C420.33 120.179 419.18 116.599 416.89 114.019C414.6 111.439 411.45 110.159 407.44 110.159C403.05 110.159 399.52 111.639 396.84 114.599C394.17 117.559 392.83 121.429 392.83 126.199V163.419H370.35V87.6193H370.37Z" fill="white"/>
<path d="M456.65 48.4094C459.21 46.0394 462.47 44.8594 466.41 44.8594C470.35 44.8594 473.61 46.0394 476.17 48.4094C478.73 50.7794 480.01 53.8394 480.01 57.5794C480.01 61.2294 478.75 64.2394 476.24 66.6094C473.73 68.9794 470.44 70.1594 466.4 70.1594C462.36 70.1594 459.08 68.9794 456.56 66.6094C454.05 64.2394 452.79 61.2294 452.79 57.5794C452.79 53.8394 454.07 50.7694 456.63 48.4094H456.65Z" fill="white"/>
<path d="M454.7 82.39L477.18 74.25V163.43H454.7V82.39Z" fill="white"/>
<path d="M218.78 9.10977L231.19 11.6498L231.39 11.7598C208.01 27.6298 174.54 44.1498 150.65 48.3498C120.56 53.6398 80.1303 51.3398 42.4903 42.1898L42.3203 42.7698L42.5803 42.8598C50.0703 45.4798 83.3603 56.2498 123.09 56.2498C132.64 56.2498 142.57 55.6298 152.6 54.1198C170.98 51.3498 214.69 36.4398 237.83 16.4598L242.75 25.1198L243.65 0.459766V0.00976562L218.78 9.11977V9.10977ZM236.57 14.5698L236.84 14.7198L236.88 14.7898L236.57 14.5698Z" fill="#FF9600"/>
</g>
<defs>
<clipPath id="clip0_4752_9206">
<rect width="480.03" height="164.85" fill="white"/>
</clipPath>
</defs>
</svg>
