<svg width="34" height="34" viewBox="0 0 34 34" fill="none" xmlns="http://www.w3.org/2000/svg">
<path d="M0.913078 14.7884C0.914116 14.7876 0.914898 14.7865 0.915676 14.7858L14.7864 0.916977C15.3776 0.325546 16.1637 0 16.9998 0C17.8359 0 18.622 0.325546 19.2135 0.916977L33.0769 14.7788C33.0816 14.7834 33.0865 14.7884 33.0909 14.793C34.305 16.014 34.303 17.9951 33.085 19.2129C32.5285 19.7696 31.7938 20.0918 31.008 20.1258C30.9758 20.1289 30.9437 20.1304 30.9112 20.1304H30.3587V30.3368C30.3587 32.3567 28.7149 34 26.6948 34H21.2681C20.7179 34 20.2719 33.5538 20.2719 33.0039V25.002C20.2719 24.0803 19.5219 23.3306 18.6002 23.3306H15.3994C14.4777 23.3306 13.7279 24.0803 13.7279 25.002V33.0039C13.7279 33.5538 13.282 34 12.7317 34H7.30507C5.28466 34 3.6412 32.3567 3.6412 30.3368V20.1304H3.12858C2.29271 20.1304 1.50665 19.8049 0.914894 19.2132C-0.304405 17.9935 -0.304924 16.0088 0.913078 14.7884Z" fill="white"/>
<path d="M2.1249 17.8151C2.34285 18.0331 2.63259 18.1532 2.94046 18.1532H4.46959C5.02723 18.1532 5.47918 18.6051 5.47918 19.1628V30.5165C5.47918 31.4503 6.23901 32.2101 7.17315 32.2101H11.6632V25.1096C11.6632 23.0624 13.3288 21.3966 15.3764 21.3966H18.6203C20.6679 21.3966 22.3337 23.0624 22.3337 25.1096V32.2101H26.8238C27.7577 32.2101 28.5178 31.4503 28.5178 30.5165V19.1628C28.5178 18.6051 28.9697 18.1532 29.5274 18.1532H31.0302C31.046 18.1522 31.0615 18.1514 31.0775 18.1511C31.3783 18.1458 31.6604 18.0265 31.8718 17.8148C32.3214 17.3653 32.3214 16.6336 31.8718 16.1838C31.8715 16.1838 31.8715 16.1835 31.8713 16.1833L31.8705 16.1825L17.8136 2.12689C17.596 1.90895 17.3065 1.78906 16.9983 1.78906C16.6905 1.78906 16.401 1.90895 16.183 2.12689L2.12936 16.1796C2.12726 16.1817 2.1249 16.1838 2.12279 16.1859C1.67557 16.6363 1.67636 17.3663 2.1249 17.8151Z" fill="white"/>
</svg>
